<svg width="40" height="40" viewBox="0 0 40 40" fill="none" xmlns="http://www.w3.org/2000/svg">
<path d="M0 3C0 1.34315 1.34315 0 3 0H18.6667H37C38.6569 0 40 1.34315 40 3V37C40 38.6569 38.6569 40 37 40H3C1.34315 40 0 38.6569 0 37V3Z" fill="#0074CB"/>
<path d="M5.33334 6.66666V32H34V6.66666L30.6667 6.66666V12H25.3333V6.66666H22.6667V12H17.3333V6.66666H14.6667V12H9.33334V6.66666H5.33334Z" fill="white" stroke="white" stroke-linejoin="round"/>
<path d="M12.6667 9.33333H11.3333V5.33333H12.6667V9.33333Z" stroke="white" stroke-linejoin="round"/>
<path d="M20.6667 9.33333H19.3333V5.33333H20.6667V9.33333Z" stroke="white" stroke-linejoin="round"/>
<path d="M28.6667 9.33333H27.3333V5.33333H28.6667V9.33333Z" stroke="white" stroke-linejoin="round"/>
</svg>
