<svg width="60" height="38" viewBox="0 0 60 38" fill="none" xmlns="http://www.w3.org/2000/svg">
<path d="M0 3.61094C0 1.69845 1.48407 0.103948 3.39563 0.0442148C25.7905 -0.655584 44.3485 7.12019 55.4361 11.5707C58.0883 12.6353 59.7253 15.3641 59.3407 18.196L56.7742 37.0898H0V3.61094Z" fill="url(#paint0_linear)"/>
<path d="M29.826 20.4701C29.826 27.8436 24.1053 33.7547 17.1285 33.7547C10.1518 33.7547 4.43108 27.8436 4.43108 20.4701C4.43108 13.0966 10.1518 7.1855 17.1285 7.1855C24.1053 7.1855 29.826 13.0966 29.826 20.4701Z" stroke="#0074CB" stroke-width="1.81991"/>
<line y1="-0.909954" x2="26.8812" y2="-0.909954" transform="matrix(0.692019 -0.721879 0.692019 0.721879 8.05693 29.9331)" stroke="#0074CB" stroke-width="1.81991"/>
<line y1="-0.909954" x2="26.8812" y2="-0.909954" transform="matrix(0.69202 0.721879 -0.69202 0.721879 7.37379 10.7676)" stroke="#0074CB" stroke-width="1.81991"/>
<line x1="16.4907" y1="34.6646" x2="16.4907" y2="6.27555" stroke="#0074CB" stroke-width="1.81991"/>
<line x1="3.52113" y1="19.5601" x2="29.8288" y2="19.5601" stroke="#0074CB" stroke-width="1.81991"/>
<path d="M51.8148 23.7041C51.8148 29.1174 47.6142 33.4617 42.4858 33.4617C37.3575 33.4617 33.1569 29.1174 33.1569 23.7041C33.1569 18.2907 37.3575 13.9464 42.4858 13.9464C47.6142 13.9464 51.8148 18.2907 51.8148 23.7041Z" stroke="#0074CB" stroke-width="1.21327"/>
<line y1="-0.606636" x2="19.6276" y2="-0.606636" transform="matrix(0.69202 -0.721879 0.69202 0.721879 35.8621 30.6136)" stroke="#0074CB" stroke-width="1.21327"/>
<line y1="-0.606636" x2="19.6276" y2="-0.606636" transform="matrix(0.692019 0.721879 -0.692019 0.721879 35.3633 16.6197)" stroke="#0074CB" stroke-width="1.21327"/>
<line x1="42.0779" y1="34.0683" x2="42.0779" y2="13.3398" stroke="#0074CB" stroke-width="1.21327"/>
<line x1="32.5503" y1="23.0974" x2="51.759" y2="23.0974" stroke="#0074CB" stroke-width="1.21327"/>
<defs>
<linearGradient id="paint0_linear" x1="-5.61776e-07" y1="2" x2="55.5" y2="37" gradientUnits="userSpaceOnUse">
<stop stop-color="#7B91BC"/>
<stop offset="1" stop-color="#1EC4B5" stop-opacity="0.17"/>
</linearGradient>
</defs>
</svg>
